<svg xmlns="http://www.w3.org/2000/svg" xmlns:xlink="http://www.w3.org/1999/xlink" width="418.43" height="123.07" viewBox="0 0 418.43 123.07">
  <defs>
    <linearGradient id="linear-gradient" x1="0.5" y1="0.011" x2="0.5" y2="1.059" gradientUnits="objectBoundingBox">
      <stop offset="0" stop-color="#df542f"/>
      <stop offset="0.543" stop-color="#8420a7"/>
      <stop offset="1" stop-color="#393e9a"/>
    </linearGradient>
    <linearGradient id="linear-gradient-4" x1="0.5" y1="0.034" x2="0.5" y2="1.031" xlink:href="#linear-gradient"/>
    <linearGradient id="linear-gradient-6" x1="0.5" y1="0.019" x2="0.5" y2="0.984" xlink:href="#linear-gradient"/>
  </defs>
  <g id="ARRow" transform="translate(-936.785 -774.465)">
    <g id="Group_2" data-name="Group 2">
      <path id="Path_1" data-name="Path 1" d="M1050.283,859.778v-9.391l5.588.233,12.65-37.564-7.373.311V803.9l19.481.311,19.4-.234v9.392l-7.373-.233,12.573,37.486h4.269v9.158l-13.116-.232-12.961.232v-9.391l6.907.233-2.639-8.537H1071.47l-3.336,8.537h6.984v9.158l-12.65-.232Zm27.474-41.521-4.424,14.9h11.8l-4.424-14.9-.776-2.562-.7-3.415-.7,3.415Z" fill="url(#linear-gradient)"/>
      <path id="Path_2" data-name="Path 2" d="M1107.792,859.778v-9.391l6.287.233V813.134l-6.287.078v-9.237l12.573.234,12.806-.311h2.483a42.816,42.816,0,0,1,7.839.543,20.155,20.155,0,0,1,5.588,2.1,13.645,13.645,0,0,1,5.2,5.355,15.561,15.561,0,0,1,1.94,7.684,15.756,15.756,0,0,1-1.629,7.14,14.35,14.35,0,0,1-2.833,4.152,21.46,21.46,0,0,1-4.851,3.143l8.692,16.609h6.131v9.158l-7.993-.232-8.228.232-11.874-23.826h-5.666v14.435l6.209.233v9.158l-12.96-.232Zm20.178-46.566v13.271l4.919.155q8.43,0,8.431-6.907,0-6.521-8.9-6.519h-4.45Z" fill="url(#linear-gradient)"/>
      <path id="Path_3" data-name="Path 3" d="M1160.334,859.778v-9.391l6.287.233V813.134l-6.287.078v-9.237l12.573.234,12.806-.311h2.483a42.816,42.816,0,0,1,7.839.543,20.155,20.155,0,0,1,5.588,2.1,13.645,13.645,0,0,1,5.2,5.355,15.561,15.561,0,0,1,1.94,7.684,15.756,15.756,0,0,1-1.629,7.14,14.35,14.35,0,0,1-2.833,4.152,21.46,21.46,0,0,1-4.851,3.143l8.692,16.609h6.131v9.158l-7.993-.232-8.228.232-11.874-23.826h-5.666v14.435l6.209.233v9.158l-12.961-.232Zm20.178-46.566v13.271l4.919.155q8.43,0,8.431-6.907,0-6.521-8.9-6.519h-4.45Z" fill="url(#linear-gradient)"/>
      <path id="Path_4" data-name="Path 4" d="M1213.42,831.839q0-13.35,8.071-21.344t21.5-7.993q13.5,0,21.576,7.993t8.071,21.344q0,13.426-8.071,21.42t-21.576,7.994q-13.428,0-21.5-7.994T1213.42,831.839Zm29.569-19.326a12.16,12.16,0,0,0-10.4,5.083q-3.726,5.085-3.726,14.243,0,9.078,3.765,14.241a13.127,13.127,0,0,0,20.838.039q3.724-5.123,3.725-14.28t-3.765-14.243A12.264,12.264,0,0,0,1242.989,812.513Z" fill="url(#linear-gradient-4)"/>
      <path id="Path_5" data-name="Path 5" d="M1270.386,813.134V803.9l13.815.311,12.728-.234v9.314l-5.588-.155,6.83,23.516,1.319,5.82.466-2.871.853-2.949,7.218-23.516h-5.044V803.9l11.8.311,12.185-.234v9.314l-5.045-.155,6.6,23.283.932,2.872.543,2.872.621-2.872,1.009-3.027,7.14-23.128h-5.821V803.9l11.254.311,11.021-.234v9.314l-5.744-.155-14.978,46.644h-13.582l-6.442-22.119q-.777-2.56-1.047-3.919a39.138,39.138,0,0,1-.505-4q-.467,2.793-.815,4.19t-.815,2.95l-6.907,22.9h-13.194l-15.056-46.644Z" fill="url(#linear-gradient)"/>
    </g>
    <g id="Group_3" data-name="Group 3">
      <path id="Path_6" data-name="Path 6" d="M1047.728,881.045v-1.776l1.2.044v-7.089l-1.2.044v-1.79l2.539.059,2.172-.044h.192a7.591,7.591,0,0,1,1.562.132,4.389,4.389,0,0,1,1.211.468,2.99,2.99,0,0,1,1.1,1.15,3.259,3.259,0,0,1,.4,1.589,3.47,3.47,0,0,1-.352,1.552,3.1,3.1,0,0,1-.984,1.171,4.592,4.592,0,0,1-2.759.689h-1.247v2.025l1.291.044v1.732L1050.3,881Zm3.831-8.777v3.243h.727q1.827,0,1.827-1.635,0-1.666-1.782-1.666Z"/>
      <path id="Path_7" data-name="Path 7" d="M1058.941,875.761a5.426,5.426,0,0,1,1.527-4.036,6.242,6.242,0,0,1,8.144,0,6.121,6.121,0,0,1,0,8.087,6.239,6.239,0,0,1-8.144,0A5.444,5.444,0,0,1,1058.941,875.761Zm5.591-3.654a2.3,2.3,0,0,0-1.966.961,5.474,5.474,0,0,0,.007,5.387,2.483,2.483,0,0,0,3.94.007,4.519,4.519,0,0,0,.706-2.7,4.456,4.456,0,0,0-.712-2.693A2.32,2.32,0,0,0,1064.532,872.107Z"/>
      <path id="Path_8" data-name="Path 8" d="M1072.281,881.045v-1.776l1.175.044v-7.089l-1.175.044v-1.79l2.474.059,2.5-.044v1.731l-1.16.044v7l1.16.044v1.732l-2.473-.044Z"/>
      <path id="Path_9" data-name="Path 9" d="M1079.222,872.268v-1.79l2.232.059,2.289-.044,3.331,5.943.25.441.278.66a8.061,8.061,0,0,1-.1-1.189v-4.124l-1.2.044v-1.79l2.1.059,2.157-.044v1.775l-1.144-.058v8.835h-2.7l-3.905-6.869-.307-.528-.279-.645c.019.2.034.405.043.631s.015.45.015.674v5.005l1.2-.044v1.776l-2.1-.044-2.158.044v-1.732l1.175-.044v-7.045Z"/>
      <path id="Path_10" data-name="Path 10" d="M1092.489,874.734l.044-2.224-.044-2.032,4.558.059,4.659-.044-.044,2.186.044,2.07h-1.82v-2.481h-1.453v7.045l1.483-.044v1.776l-2.8-.044-2.861.044v-1.732l1.541-.044v-7h-1.483v2.481Z"/>
      <path id="Path_11" data-name="Path 11" d="M1108.927,871.08v-.616l1.732.014-.044,1.673.044,1.5-1.561-.014a3.125,3.125,0,0,0-.14-.61,1.266,1.266,0,0,0-.257-.4,1.824,1.824,0,0,0-.678-.455,2.231,2.231,0,0,0-.853-.176,1.306,1.306,0,0,0-.855.278.874.874,0,0,0-.338.7.914.914,0,0,0,.529.806l.543.264.543.263.7.308.631.323c.117.069.242.139.374.212a3.3,3.3,0,0,1,.3.184,2.944,2.944,0,0,1,1.526,2.7,3.05,3.05,0,0,1-.947,2.309,3.4,3.4,0,0,1-2.443.9,3.864,3.864,0,0,1-1.1-.137,3.176,3.176,0,0,1-.726-.3,4.791,4.791,0,0,1-.668-.528v.778h-1.658l.058-1.8c0-.089-.009-.323-.029-.705s-.029-.714-.029-1l1.775-.015v.307a1.715,1.715,0,0,0,.492,1.274,1.76,1.76,0,0,0,1.3.489,1.306,1.306,0,0,0,.888-.3,1.01,1.01,0,0,0,.345-.8,1.033,1.033,0,0,0-.118-.477,1.167,1.167,0,0,0-.323-.388,1.07,1.07,0,0,0-.146-.1l-.235-.147-.528-.279-.778-.337a6.6,6.6,0,0,1-2.231-1.428,2.587,2.587,0,0,1-.689-1.81,3.166,3.166,0,0,1,.917-2.366,3.254,3.254,0,0,1,2.384-.9,3.1,3.1,0,0,1,.984.147A4.494,4.494,0,0,1,1108.927,871.08Z"/>
      <path id="Path_12" data-name="Path 12" d="M1119.038,881.045v-1.776l1.175.044v-7.089l-1.175.044v-1.79l2.473.059,2.5-.044v1.731l-1.159.044v7l1.159.044v1.732l-2.472-.044Z"/>
      <path id="Path_13" data-name="Path 13" d="M1125.979,872.268v-1.79l2.232.059,2.289-.044,3.331,5.943.25.441.278.66a8.061,8.061,0,0,1-.1-1.189v-4.124l-1.2.044v-1.79l2.1.059,2.157-.044v1.775l-1.144-.058v8.835h-2.7l-3.9-6.869-.307-.528-.28-.645q.03.293.044.631c.01.224.015.45.015.674v5.005l1.2-.044v1.776l-2.1-.044-2.157.044v-1.732l1.175-.044v-7.045Z"/>
      <path id="Path_14" data-name="Path 14" d="M1145.117,874.734l.044-2.224-.044-2.032,4.558.059,4.659-.044-.044,2.186.044,2.07h-1.82v-2.481h-1.453v7.045l1.483-.044v1.776l-2.8-.044-2.861.044v-1.732l1.541-.044v-7h-1.483v2.481Z"/>
      <path id="Path_15" data-name="Path 15" d="M1156.27,872.224v-1.746l2.451.059,2.364-.044v1.761l-1.028-.03v2.364h3.023V872.2l-1.086.029v-1.746l2.334.059,2.51-.044v1.761l-1.146-.03v7.089l1.146-.044v1.776l-2.445-.044-2.4.044v-1.732l1.086-.044v-2.95h-3.023v2.994l1.028-.044v1.776l-2.378-.044-2.407.044v-1.732l1.145-.044V872.2Z"/>
      <path id="Path_16" data-name="Path 16" d="M1168.8,881.045v-1.776l1.19.044v-7.089l-1.19.044v-1.79l4.418.059,4.344-.044-.029,2.128v1.335l-1.967.014v-1.7h-2.949v2.569l2.523-.015v1.761l-2.523-.015v2.745h3.126V877.67h1.966l-.03,1.9v1.472l-4.351-.044Z"/>
      <path id="Path_17" data-name="Path 17" d="M1185.843,881.045v-1.776l1.189.044v-7.089l-1.189.015v-1.746l2.377.044,2.422-.059h.469a8.029,8.029,0,0,1,1.483.1,3.762,3.762,0,0,1,1.056.4,2.587,2.587,0,0,1,.984,1.013,2.942,2.942,0,0,1,.367,1.452,2.972,2.972,0,0,1-.309,1.351,2.719,2.719,0,0,1-.535.785,4.112,4.112,0,0,1-.917.595l1.644,3.14h1.159v1.732l-1.512-.044-1.556.044-2.245-4.506h-1.071v2.73l1.174.044v1.732l-2.451-.044Zm3.816-8.806v2.51l.93.029q1.593,0,1.593-1.307,0-1.231-1.682-1.232h-.841Z"/>
      <path id="Path_18" data-name="Path 18" d="M1197.392,881.045v-1.776l1.175.044v-7.089l-1.175.044v-1.79l2.474.059,2.5-.044v1.731l-1.159.044v7l1.159.044v1.732L1199.9,881Z"/>
      <path id="Path_19" data-name="Path 19" d="M1213.139,871.418v-.984h1.791c0,.332-.017.719-.051,1.159s-.052.734-.052.881l.059,1.732-1.878-.015a3.455,3.455,0,0,0-.309-.785,2.2,2.2,0,0,0-.47-.536,2.789,2.789,0,0,0-1.922-.7,2.553,2.553,0,0,0-2.113.983,4.2,4.2,0,0,0-.778,2.671,4.038,4.038,0,0,0,.763,2.612,2.591,2.591,0,0,0,2.128.94,2.9,2.9,0,0,0,1.174-.236,1.906,1.906,0,0,0,.631-.4,1.965,1.965,0,0,0,.389-.5,3.883,3.883,0,0,0,.257-.741l-2.158.015v-1.747l5.005.015a8.715,8.715,0,0,1-.066,1.27,7.664,7.664,0,0,1-.286,1.078,4.38,4.38,0,0,1-1.886,2.334,6.11,6.11,0,0,1-3.266.836,5.578,5.578,0,0,1-4.035-1.467,5.152,5.152,0,0,1-1.526-3.89,5.639,5.639,0,0,1,1.541-4.08,5.223,5.223,0,0,1,3.932-1.6,6.818,6.818,0,0,1,.823.043,4.629,4.629,0,0,1,.777.177A3.04,3.04,0,0,1,1213.139,871.418Z"/>
      <path id="Path_20" data-name="Path 20" d="M1217.659,872.224v-1.746l2.451.059,2.363-.044v1.761l-1.027-.03v2.364h3.023V872.2l-1.086.029v-1.746l2.334.059,2.509-.044v1.761l-1.145-.03v7.089l1.145-.044v1.776l-2.444-.044-2.4.044v-1.732l1.086-.044v-2.95h-3.023v2.994l1.027-.044v1.776l-2.378-.044-2.407.044v-1.732l1.146-.044V872.2Z"/>
      <path id="Path_21" data-name="Path 21" d="M1230.192,874.734l.044-2.224-.044-2.032,4.558.059,4.659-.044-.044,2.186.044,2.07h-1.819v-2.481h-1.454v7.045l1.483-.044v1.776l-2.8-.044-2.861.044v-1.732l1.541-.044v-7h-1.483v2.481Z"/>
      <path id="Path_22" data-name="Path 22" d="M1247.216,881.045v-1.776l1.189.044v-7.089l-1.189.044v-1.79l2.334.059,2.274-.044h.206a5.957,5.957,0,0,1,4.227,1.364,5.16,5.16,0,0,1,1.452,3.948,6.6,6.6,0,0,1-.366,2.268,4.64,4.64,0,0,1-1.116,1.739,4.133,4.133,0,0,1-1.534.939,6.713,6.713,0,0,1-2.149.294l-2.892-.044Zm3.831-8.777v7l1.086.044a2.479,2.479,0,0,0,2.134-.941,4.71,4.71,0,0,0-.124-5.126,2.78,2.78,0,0,0-2.246-.978Z"/>
      <path id="Path_23" data-name="Path 23" d="M1259.867,881.045v-1.776l1.175.044v-7.089l-1.175.044v-1.79l2.474.059,2.5-.044v1.731l-1.16.044v7l1.16.044v1.732L1262.37,881Z"/>
      <path id="Path_24" data-name="Path 24" d="M1266.808,881.045v-1.776l1.19.044v-7.089l-1.19.015v-1.746l2.378.044,2.422-.059h.469a8.016,8.016,0,0,1,1.482.1,3.755,3.755,0,0,1,1.057.4,2.578,2.578,0,0,1,.983,1.013,2.932,2.932,0,0,1,.368,1.452,2.971,2.971,0,0,1-.309,1.351,2.721,2.721,0,0,1-.535.785,4.139,4.139,0,0,1-.917.595l1.643,3.14h1.16v1.732L1275.5,881l-1.556.044-2.245-4.506h-1.071v2.73l1.174.044v1.732l-2.452-.044Zm3.817-8.806v2.51l.929.029q1.594,0,1.594-1.307,0-1.231-1.682-1.232h-.841Z"/>
      <path id="Path_25" data-name="Path 25" d="M1278.358,881.045v-1.776l1.19.044v-7.089l-1.19.044v-1.79l4.418.059,4.344-.044-.029,2.128v1.335l-1.967.014v-1.7h-2.949v2.569l2.523-.015v1.761l-2.523-.015v2.745h3.126V877.67h1.965l-.029,1.9v1.472l-4.352-.044Z"/>
      <path id="Path_26" data-name="Path 26" d="M1298.01,871.387v-.953h1.716l-.029,1.746.059,2-1.806.015c-.127-.333-.223-.56-.286-.682a2.72,2.72,0,0,0-.33-.462,2.4,2.4,0,0,0-.873-.647,2.765,2.765,0,0,0-1.109-.22,2.348,2.348,0,0,0-1.995.969,4.4,4.4,0,0,0-.72,2.671,4.118,4.118,0,0,0,.72,2.583,2.4,2.4,0,0,0,2.011.925,2.648,2.648,0,0,0,1.21-.257,2.819,2.819,0,0,0,.837-.624,2.905,2.905,0,0,0,.476-.675,4.826,4.826,0,0,0,.294-.954l1.982.514a6.482,6.482,0,0,1-.463,1.541,3.624,3.624,0,0,1-.873,1.056,5.769,5.769,0,0,1-7.616-.175,5.523,5.523,0,0,1-1.483-4.022,5.376,5.376,0,0,1,1.512-3.9,5.077,5.077,0,0,1,3.8-1.556,4.968,4.968,0,0,1,1.555.236,2.8,2.8,0,0,1,.7.3A5.489,5.489,0,0,1,1298.01,871.387Z"/>
      <path id="Path_27" data-name="Path 27" d="M1301.355,874.734l.044-2.224-.044-2.032,4.558.059,4.659-.044-.044,2.186.044,2.07h-1.819v-2.481H1307.3v7.045l1.482-.044v1.776l-2.8-.044-2.861.044v-1.732l1.541-.044v-7h-1.482v2.481Z"/>
      <path id="Path_28" data-name="Path 28" d="M1312.509,881.045v-1.776l1.174.044v-7.089l-1.174.044v-1.79l2.473.059,2.5-.044v1.731l-1.159.044v7l1.159.044v1.732l-2.473-.044Z"/>
      <path id="Path_29" data-name="Path 29" d="M1319.656,875.761a5.429,5.429,0,0,1,1.526-4.036,6.244,6.244,0,0,1,8.145,0,6.12,6.12,0,0,1,0,8.087,6.241,6.241,0,0,1-8.145,0A5.447,5.447,0,0,1,1319.656,875.761Zm5.591-3.654a2.3,2.3,0,0,0-1.966.961,5.475,5.475,0,0,0,.007,5.387,2.483,2.483,0,0,0,3.94.007,4.52,4.52,0,0,0,.7-2.7,4.449,4.449,0,0,0-.712-2.693A2.317,2.317,0,0,0,1325.247,872.107Z"/>
      <path id="Path_30" data-name="Path 30" d="M1333,872.268v-1.79l2.231.059,2.289-.044,3.331,5.943.25.441.279.66a7.943,7.943,0,0,1-.1-1.189v-4.124l-1.2.044v-1.79l2.1.059,2.157-.044v1.775l-1.145-.058v8.835h-2.7l-3.9-6.869-.308-.528-.279-.645c.02.2.034.405.044.631s.015.45.015.674v5.005l1.2-.044v1.776l-2.1-.044-2.157.044v-1.732l1.175-.044v-7.045Z"/>
    </g>
    <path id="Path_31" data-name="Path 31" d="M993.065,872.919v18.054l33.726-33.325a6.118,6.118,0,0,0,1.819-4.353h0a6.119,6.119,0,0,0-1.777-4.311l-27.477-27.673,17.168-31.99v3.385h14.811a5.783,5.783,0,0,1,5.072,2.516,6.3,6.3,0,0,1,1.055,3.583v88.467a4.544,4.544,0,0,1-2.088,3.758,6.972,6.972,0,0,1-4.062,1.247H963.478l-5.039,5.258,34.536-64.342,18.131,17.322a3.014,3.014,0,0,1,.933,2.18h0a3.02,3.02,0,0,1-.883,2.133Z"/>
    <path id="Path_32" data-name="Path 32" d="M958.037,883.356,974.822,851.9l-27.93-28.109a5.326,5.326,0,0,1-1.55-3.756h0a5.331,5.331,0,0,1,1.579-3.786l34.295-33.981v18.1l-17.6,17.2a3.228,3.228,0,0,0-.972,2.309h0a3.226,3.226,0,0,0,.926,2.263l17.834,18.147,35.638-65.824-6.135,6.7h-69.75a4.373,4.373,0,0,0-4.373,4.373v90.907a4.373,4.373,0,0,0,4.373,4.373h16.715S958.037,883.568,958.037,883.356Z" fill="url(#linear-gradient-6)"/>
  </g>
</svg>
