<?xml version="1.0" encoding="utf-8"?>
<!-- Generator: Adobe Illustrator 19.2.0, SVG Export Plug-In . SVG Version: 6.00 Build 0)  -->
<svg version="1.1" id="Layer_1" xmlns="http://www.w3.org/2000/svg" xmlns:xlink="http://www.w3.org/1999/xlink" x="0px" y="0px"
	 viewBox="0 0 700 500" enable-background="new 0 0 700 500" xml:space="preserve">
<g>
	<g>
		<polygon fill="#2FD1DD" points="423.767,274.121 418.143,243.261 339.06,286.951 401.604,269.513 410.294,302.114 487.8,245.591 
					"/>
	</g>
	<path fill="#2FD1DD" d="M519.881,177.079h-89.188l-0.233,0.432l15.008,24.93h74.413c17.773,0,28.357,10.586,28.357,27.359
		c0,16.374-10.584,27.558-28.357,27.558h-41.352l14.786,24.561h26.565c33.549,0,53.119-21.566,53.119-52.918
		C573,197.248,553.429,177.079,519.881,177.079z"/>
	<path fill="#012526" d="M238.268,297.429h-72.731l47.108-47.498l-12.665-23.477l-70.789,71.374
		c-3.394,3.394-5.192,6.988-5.192,10.783c0,8.586,6.79,12.98,14.379,12.98h113.646c-1.082-1.188-2.062-2.528-2.904-4.044
		L238.268,297.429z"/>
	<path fill="#2FD1DD" d="M174.012,178.313c-0.321-0.594-0.47-1.248-0.47-1.901h-47.744v24.164h60.223L174.012,178.313z"/>
	<polygon fill="#012526" points="428.25,184.95 414.178,211.036 444.327,261.655 468.061,251.08 	"/>
	<polygon fill="#012526" points="452.348,275.182 458.191,285.047 479.957,321.591 510.51,321.591 473.35,259.865 	"/>
	<polygon fill="#012526" points="426.299,176.412 397.942,176.412 342.137,281.801 381.041,260.309 	"/>
	<path fill="#012526" d="M339.059,289.97c-1.199,0-2.319-0.718-2.794-1.877c-0.505-1.234-0.134-2.627,0.856-3.456l-54.403-108.226
		h-26.572h-3.982l37.743,72.092l-21.967,39.539l-58.711-111.631h-30.354l75.086,139.189c2.995,5.392,7.589,7.988,13.18,7.988
		c5.192,0,10.185-2.596,12.981-7.988l22.566-42.536l22.364,42.536c2.796,5.392,7.589,7.988,12.98,7.988
		c5.392,0,10.185-2.596,13.182-7.988l18.353-34.022l-29.696,8.279C339.601,289.934,339.328,289.97,339.059,289.97z"/>
</g>
</svg>
