<svg version="1.2" xmlns="http://www.w3.org/2000/svg" viewBox="0 0 458 151" width="458" height="151">
	<title>ZWAP-svg</title>
	<style>
		.s0 { fill: #2fd1dd } 
		.s1 { fill: #012526 } 
	</style>
	<g id="Layer">
		<g id="Layer">
			<path id="Layer" class="s0" d="m368.8 72.6l-77.5 56.5-8.7-32.6-62.5 17.5 79-43.7 5.7 30.8z"/>
		</g>
		<path id="Layer" class="s0" d="m454 56c0 31.4-19.6 52.9-53.1 52.9h-26.6l-14.8-24.5h41.4c17.8 0 28.3-11.2 28.3-27.6 0-16.8-10.5-27.4-28.3-27.4h-74.4l-15-24.9 0.2-0.4h89.2c33.5 0 53.1 20.1 53.1 51.9z"/>
		<path id="Layer" class="s1" d="m130.1 144.5q1.3 2.3 2.9 4.1h-113.6c-7.6 0-14.4-4.4-14.4-13 0-3.8 1.8-7.4 5.2-10.8l70.8-71.3 12.6 23.4-47.1 47.5h72.8z"/>
		<path id="Layer" class="s0" d="m67 27.6h-60.2v-24.2h47.7c0 0.7 0.2 1.3 0.5 1.9z"/>
		<path id="Layer" class="s1" d="m349.1 78.1l-23.8 10.6-30.1-50.7 14-26.1z"/>
		<path id="Layer" class="s1" d="m354.4 86.9l37.1 61.7h-30.5l-21.8-36.6-5.9-9.8z"/>
		<path id="Layer" class="s1" d="m262 87.3l-38.9 21.5 55.8-105.4h28.4z"/>
		<path id="Layer" class="s1" d="m220.9 116.9l29.7-8.3-18.4 34c-3 5.4-7.8 8-13.2 8-5.4 0-10.2-2.6-12.9-8l-22.4-42.5-22.6 42.5c-2.8 5.4-7.8 8-13 8-5.5 0-10.1-2.6-13.1-8l-75.1-139.2h30.3l58.7 111.6 22-39.5-37.7-72.1h3.9 26.6l54.4 108.2c-1 0.9-1.3 2.3-0.8 3.5 0.4 1.2 1.6 1.9 2.8 1.9q0.4 0 0.8-0.1z"/>
	</g>
</svg>